<svg xmlns="http://www.w3.org/2000/svg" viewBox="0 0 1200 675" role="img" aria-labelledby="title">
  <title id="title">AI Reporting Automation</title>
  <defs>
    <linearGradient id="bg" x1="0" x2="1" y1="0" y2="1">
      <stop offset="0" stop-color="#fbfdff"/>
      <stop offset="0.56" stop-color="#eef7fb"/>
      <stop offset="1" stop-color="#fbfdff"/>
    </linearGradient>
    <filter id="shadow" x="-20%" y="-20%" width="140%" height="140%">
      <feDropShadow dx="0" dy="18" stdDeviation="22" flood-color="#14213d" flood-opacity="0.10"/>
    </filter>
    <marker id="arrowBlue" markerWidth="12" markerHeight="12" refX="9" refY="6" orient="auto">
      <path d="M2 2L10 6L2 10Z" fill="#2563eb"/>
    </marker>
    <marker id="arrowTeal" markerWidth="12" markerHeight="12" refX="9" refY="6" orient="auto">
      <path d="M2 2L10 6L2 10Z" fill="#0f766e"/>
    </marker>
  </defs>
  <rect width="1200" height="675" fill="url(#bg)"/>
  <rect x="76" y="72" width="1048" height="530" rx="30" fill="#ffffff" stroke="#d8e2ef" filter="url(#shadow)"/>
  <text x="122" y="145" font-family="Arial, Helvetica, sans-serif" font-size="38" font-weight="700" fill="#14213d">AI Reporting Automation</text>
  <text x="122" y="184" font-family="Arial, Helvetica, sans-serif" font-size="20" fill="#64748b">Metric deltas, anomaly prompts, reviewed summaries</text>
  <g transform="translate(0 4)">
    <path d="M360 346 C410 306 450 306 494 346" fill="none" stroke="#2563eb" stroke-width="8" stroke-linecap="round" marker-end="url(#arrowBlue)"/>
    <path d="M706 346 C756 306 796 306 840 346" fill="none" stroke="#2563eb" stroke-width="8" stroke-linecap="round" marker-end="url(#arrowBlue)"/>
    <path d="M946 438 C820 548 405 548 252 438" fill="none" stroke="#0f766e" stroke-width="7" stroke-linecap="round" stroke-dasharray="16 16" marker-end="url(#arrowTeal)"/>
    <g font-family="Arial, Helvetica, sans-serif" text-anchor="middle">
      <rect x="132" y="270" width="240" height="168" rx="24" fill="#dbeafe"/>
      <circle cx="252" cy="314" r="24" fill="#2563eb" opacity="0.16"/>
      <path d="M236 314h32M252 298v32" stroke="#2563eb" stroke-width="7" stroke-linecap="round"/>
      <text x="252" y="374" font-size="24" font-weight="700" fill="#1e40af">Data refresh</text>
      <rect x="478" y="270" width="240" height="168" rx="24" fill="#ccfbf1"/>
      <circle cx="598" cy="314" r="24" fill="#0f766e" opacity="0.16"/>
      <path d="M584 322c8-28 35-28 28 0M584 322h28" stroke="#0f766e" stroke-width="7" stroke-linecap="round" stroke-linejoin="round" fill="none"/>
      <text x="598" y="374" font-size="24" font-weight="700" fill="#0f766e">AI draft</text>
      <rect x="824" y="270" width="240" height="168" rx="24" fill="#fef3c7"/>
      <circle cx="944" cy="314" r="24" fill="#92400e" opacity="0.16"/>
      <path d="M928 314l11 12l25-29" stroke="#92400e" stroke-width="8" stroke-linecap="round" stroke-linejoin="round" fill="none"/>
      <text x="944" y="374" font-size="24" font-weight="700" fill="#92400e">Human review</text>
    </g>
    <g opacity="0.95">
      <rect x="162" y="470" width="180" height="16" rx="8" fill="#dbeafe"/>
      <rect x="508" y="470" width="180" height="16" rx="8" fill="#ccfbf1"/>
      <rect x="854" y="470" width="180" height="16" rx="8" fill="#fef3c7"/>
      <circle cx="252" cy="478" r="8" fill="#2563eb"/>
      <circle cx="598" cy="478" r="8" fill="#0f766e"/>
      <circle cx="944" cy="478" r="8" fill="#92400e"/>
    </g>
  </g>
</svg>
