<svg xmlns="http://www.w3.org/2000/svg" viewBox="0 0 1200 675" role="img" aria-labelledby="title">
  <title id="title">Revenue Operations Dashboard</title>
  <defs>
    <linearGradient id="bg" x1="0" x2="1" y1="0" y2="1">
      <stop offset="0" stop-color="#f8fbff"/>
      <stop offset="0.55" stop-color="#eef7fb"/>
      <stop offset="1" stop-color="#f8fbff"/>
    </linearGradient>
    <linearGradient id="chart" x1="0" x2="1" y1="0" y2="0">
      <stop offset="0" stop-color="#2563eb"/>
      <stop offset="0.55" stop-color="#06b6d4"/>
      <stop offset="1" stop-color="#0f766e"/>
    </linearGradient>
    <filter id="shadow" x="-20%" y="-20%" width="140%" height="140%">
      <feDropShadow dx="0" dy="18" stdDeviation="22" flood-color="#14213d" flood-opacity="0.10"/>
    </filter>
  </defs>
  <rect width="1200" height="675" fill="url(#bg)"/>
  <rect x="72" y="62" width="1056" height="550" rx="30" fill="#ffffff" stroke="#d8e2ef" filter="url(#shadow)"/>
  <rect x="72" y="62" width="1056" height="74" rx="30" fill="#f8fbff"/>
  <rect x="72" y="108" width="1056" height="28" fill="#f8fbff"/>
  <circle cx="119" cy="99" r="9" fill="#d8e2ef"/>
  <circle cx="151" cy="99" r="9" fill="#d8e2ef"/>
  <circle cx="183" cy="99" r="9" fill="#d8e2ef"/>
  <text x="225" y="108" font-family="Arial, Helvetica, sans-serif" font-size="26" font-weight="700" fill="#14213d">Revenue Operations Dashboard</text>
  <g transform="translate(110 168)">
    <rect width="980" height="405" rx="24" fill="#ffffff"/>
    <g>
      <rect x="0" y="0" width="220" height="92" rx="18" fill="#dbeafe"/>
      <rect x="252" y="0" width="220" height="92" rx="18" fill="#ccfbf1"/>
      <rect x="504" y="0" width="220" height="92" rx="18" fill="#fef3c7"/>
      <rect x="756" y="0" width="220" height="92" rx="18" fill="#ede9fe"/>
      <text x="26" y="38" font-family="Arial, Helvetica, sans-serif" font-size="15" font-weight="700" fill="#1e40af">Pipeline</text>
      <text x="26" y="66" font-family="Arial, Helvetica, sans-serif" font-size="28" font-weight="700" fill="#14213d">$4.8M</text>
      <text x="278" y="38" font-family="Arial, Helvetica, sans-serif" font-size="15" font-weight="700" fill="#0f766e">Coverage</text>
      <text x="278" y="66" font-family="Arial, Helvetica, sans-serif" font-size="28" font-weight="700" fill="#14213d">3.2x</text>
      <text x="530" y="38" font-family="Arial, Helvetica, sans-serif" font-size="15" font-weight="700" fill="#92400e">Forecast</text>
      <text x="530" y="66" font-family="Arial, Helvetica, sans-serif" font-size="28" font-weight="700" fill="#14213d">91%</text>
      <text x="782" y="38" font-family="Arial, Helvetica, sans-serif" font-size="15" font-weight="700" fill="#6d28d9">Risk</text>
      <text x="782" y="66" font-family="Arial, Helvetica, sans-serif" font-size="28" font-weight="700" fill="#14213d">14</text>
    </g>
    <g transform="translate(0 126)">
      <rect width="610" height="260" rx="22" fill="#f8fbff" stroke="#e2e8f0"/>
      <path d="M54 203 C112 178 150 190 198 154 S304 130 352 104 458 82 556 56" fill="none" stroke="url(#chart)" stroke-width="12" stroke-linecap="round"/>
      <path d="M54 203 C112 178 150 190 198 154 S304 130 352 104 458 82 556 56 L556 220 L54 220 Z" fill="#2563eb" opacity="0.06"/>
      <g stroke="#d8e2ef" stroke-width="2">
        <line x1="48" y1="220" x2="562" y2="220"/>
        <line x1="48" y1="168" x2="562" y2="168"/>
        <line x1="48" y1="116" x2="562" y2="116"/>
        <line x1="48" y1="64" x2="562" y2="64"/>
      </g>
      <circle cx="198" cy="154" r="8" fill="#06b6d4"/>
      <circle cx="352" cy="104" r="8" fill="#06b6d4"/>
      <circle cx="556" cy="56" r="8" fill="#0f766e"/>
    </g>
    <g transform="translate(650 126)">
      <rect width="330" height="260" rx="22" fill="#f8fbff" stroke="#e2e8f0"/>
      <rect x="46" y="155" width="38" height="65" rx="8" fill="#bfdbfe"/>
      <rect x="98" y="118" width="38" height="102" rx="8" fill="#93c5fd"/>
      <rect x="150" y="82" width="38" height="138" rx="8" fill="#60a5fa"/>
      <rect x="202" y="104" width="38" height="116" rx="8" fill="#22d3ee"/>
      <rect x="254" y="60" width="38" height="160" rx="8" fill="#0f766e"/>
      <circle cx="96" cy="54" r="32" fill="#dbeafe"/>
      <path d="M96 32 A22 22 0 1 1 78 67" fill="none" stroke="#2563eb" stroke-width="9" stroke-linecap="round"/>
      <circle cx="96" cy="54" r="10" fill="#2563eb"/>
    </g>
  </g>
</svg>
