<svg xmlns="http://www.w3.org/2000/svg" viewBox="0 0 1200 675" role="img" aria-labelledby="title desc">
  <title id="title">How to Factor Business Stage, Problems, and Decision Context into Your KPI Framework</title>
  <desc id="desc">A clean KPI framework banner showing business stage, business problem, and decision context feeding into balanced KPI design.</desc>
  <defs>
    <linearGradient id="bg" x1="0" y1="0" x2="1" y2="1">
      <stop offset="0" stop-color="#f8fbff"/>
      <stop offset="0.5" stop-color="#f6fbfc"/>
      <stop offset="1" stop-color="#eef6f8"/>
    </linearGradient>
    <linearGradient id="field" x1="0" y1="0" x2="1" y2="1">
      <stop offset="0" stop-color="#eff6ff"/>
      <stop offset="1" stop-color="#e6f7f4"/>
    </linearGradient>
    <linearGradient id="card" x1="0" y1="0" x2="1" y2="1">
      <stop offset="0" stop-color="#ffffff"/>
      <stop offset="1" stop-color="#f8fafc"/>
    </linearGradient>
    <filter id="softShadow" x="-12%" y="-18%" width="124%" height="136%">
      <feDropShadow dx="0" dy="18" stdDeviation="24" flood-color="#0f172a" flood-opacity="0.08"/>
    </filter>
  </defs>

  <rect width="1200" height="675" fill="url(#bg)"/>
  <path d="M675 -40H1200V675H506C641 552 672 400 608 268C558 166 571 52 675 -40Z" fill="url(#field)" opacity="0.78"/>
  <path d="M0 496C154 448 298 470 443 526C608 590 770 575 930 514C1048 469 1135 466 1200 492V675H0Z" fill="#eff6ff" opacity="0.46"/>
  <path d="M140 226H1040" stroke="#dbeafe" stroke-width="2" stroke-dasharray="10 18" opacity="0.6"/>

  <g transform="translate(78 70)">
    <text x="0" y="0" dominant-baseline="hanging" font-family="Inter, Segoe UI, Arial, sans-serif" font-size="38" font-weight="750" fill="#071a3d">
      <tspan x="0" dy="0">How to Factor Business Stage, Problems,</tspan>
      <tspan x="0" dy="50">and Decision Context into Your KPI Framework</tspan>
    </text>
  </g>

  <g transform="translate(84 242)">
    <g filter="url(#softShadow)">
      <rect x="0" y="0" width="304" height="278" rx="30" fill="url(#card)" stroke="#d8e2ef"/>
      <text x="152" y="56" text-anchor="middle" dominant-baseline="middle" font-family="Inter, Segoe UI, Arial, sans-serif" font-size="18" font-weight="700" fill="#071a3d">Business Stage</text>
      <g transform="translate(49 96)">
        <rect x="0" y="92" width="40" height="42" rx="10" fill="#dbeafe"/>
        <rect x="55" y="58" width="40" height="76" rx="10" fill="#bfdbfe"/>
        <rect x="110" y="24" width="40" height="110" rx="10" fill="#bdeee6"/>
        <rect x="165" y="-4" width="40" height="138" rx="10" fill="#8fd8d0"/>
        <path d="M0 150H205" stroke="#d8e2ef" stroke-width="3" stroke-linecap="round"/>
      </g>
    </g>

    <g transform="translate(366 0)" filter="url(#softShadow)">
      <rect x="0" y="0" width="304" height="278" rx="30" fill="url(#card)" stroke="#d8e2ef"/>
      <text x="152" y="56" text-anchor="middle" dominant-baseline="middle" font-family="Inter, Segoe UI, Arial, sans-serif" font-size="18" font-weight="700" fill="#071a3d">Business Problem</text>
      <g transform="translate(47 100)">
        <rect x="10" y="8" width="190" height="142" rx="26" fill="#eff6ff" stroke="#dbeafe" stroke-width="2"/>
        <path d="M44 112H166" stroke="#d8e2ef" stroke-width="7" stroke-linecap="round"/>
        <path d="M44 84H132" stroke="#8fd8d0" stroke-width="9" stroke-linecap="round"/>
        <path d="M44 54H112" stroke="#7fa7f3" stroke-width="9" stroke-linecap="round"/>
        <circle cx="164" cy="54" r="14" fill="#94a3b8"/>
        <path d="M164 87V52" stroke="#94a3b8" stroke-width="7" stroke-linecap="round"/>
        <circle cx="164" cy="112" r="7" fill="#94a3b8"/>
      </g>
    </g>

    <g transform="translate(732 0)" filter="url(#softShadow)">
      <rect x="0" y="0" width="304" height="278" rx="30" fill="url(#card)" stroke="#d8e2ef"/>
      <text x="152" y="56" text-anchor="middle" dominant-baseline="middle" font-family="Inter, Segoe UI, Arial, sans-serif" font-size="18" font-weight="700" fill="#071a3d">Decision Context</text>
      <g transform="translate(30 100)">
        <circle cx="92" cy="72" r="62" fill="#eff6ff" stroke="#dbeafe" stroke-width="2"/>
        <path d="M92 30V72L126 94" fill="none" stroke="#7fa7f3" stroke-width="10" stroke-linecap="round" stroke-linejoin="round"/>
        <circle cx="92" cy="72" r="12" fill="#0f9f9a"/>
        <path d="M166 38H206M166 74H214M166 110H198" stroke="#d8e2ef" stroke-width="8" stroke-linecap="round"/>
      </g>
    </g>

    <g transform="translate(244 308)" filter="url(#softShadow)">
      <rect x="0" y="0" width="548" height="78" rx="24" fill="#f8fafc" stroke="#cbd5e1"/>
      <text x="274" y="49" text-anchor="middle" font-family="Inter, Segoe UI, Arial, sans-serif" font-size="20" font-weight="750" fill="#071a3d">Balanced KPI Framework</text>
    </g>
    <path d="M152 280V296H518V308" fill="none" stroke="#dbeafe" stroke-width="8" stroke-linecap="round" stroke-linejoin="round"/>
    <path d="M518 280V308" fill="none" stroke="#8fd8d0" stroke-width="8" stroke-linecap="round"/>
    <path d="M884 280V296H518V308" fill="none" stroke="#dbeafe" stroke-width="8" stroke-linecap="round" stroke-linejoin="round"/>
  </g>
</svg>
