<svg xmlns="http://www.w3.org/2000/svg" viewBox="0 0 1200 675" role="img" aria-label="Abstract analytics translation portfolio banner">
  <defs>
    <linearGradient id="pageBg" x1="0" y1="0" x2="1" y2="1">
      <stop offset="0" stop-color="#fbfdff"/>
      <stop offset="0.55" stop-color="#f4f8ff"/>
      <stop offset="1" stop-color="#eef6ff"/>
    </linearGradient>
    <linearGradient id="panelBg" x1="0" y1="0" x2="1" y2="1">
      <stop offset="0" stop-color="#f8fbff"/>
      <stop offset="1" stop-color="#eaf2ff"/>
    </linearGradient>
    <linearGradient id="blueFade" x1="0" y1="0" x2="0" y2="1">
      <stop offset="0" stop-color="#2563eb"/>
      <stop offset="1" stop-color="#dbeafe"/>
    </linearGradient>
    <filter id="cardShadow" x="-14%" y="-18%" width="128%" height="136%">
      <feDropShadow dx="0" dy="18" stdDeviation="24" flood-color="#0f172a" flood-opacity="0.12"/>
    </filter>
  </defs>

  <rect width="1200" height="675" fill="#edf4fb"/>
  <rect x="16" y="14" width="1168" height="647" rx="18" fill="url(#pageBg)"/>

  <g transform="translate(76 94)">
    <path d="M0 74H96" stroke="#bfceff" stroke-width="5" stroke-linecap="round"/>
    <rect x="0" y="124" width="420" height="28" rx="14" fill="#071a3d" opacity="0.95"/>
    <rect x="0" y="176" width="516" height="28" rx="14" fill="#071a3d" opacity="0.95"/>
    <rect x="0" y="238" width="356" height="12" rx="6" fill="#52627a" opacity="0.55"/>
    <rect x="0" y="268" width="450" height="12" rx="6" fill="#52627a" opacity="0.42"/>

    <g transform="translate(0 362)">
      <rect x="0" y="0" width="578" height="112" rx="22" fill="#edf4ff"/>
      <g transform="translate(60 31)" fill="none" stroke="#2563eb" stroke-width="3.5" stroke-linecap="round" stroke-linejoin="round">
        <circle cx="24" cy="24" r="19"/>
        <path d="M16 20H32"/>
        <path d="M15 32C20 36 28 36 33 32"/>
      </g>
      <path d="M144 22V90" stroke="#cbd8ee"/>
      <g transform="translate(213 35)" fill="none" stroke="#2563eb" stroke-width="3.5" stroke-linecap="round" stroke-linejoin="round">
        <path d="M0 42H52"/>
        <path d="M12 42V26"/>
        <path d="M26 42V10"/>
        <path d="M40 42V20"/>
      </g>
      <path d="M289 22V90" stroke="#cbd8ee"/>
      <g transform="translate(359 31)" fill="none" stroke="#2563eb" stroke-width="3.5" stroke-linecap="round" stroke-linejoin="round">
        <circle cx="24" cy="24" r="19"/>
        <path d="M24 13V35"/>
        <path d="M13 24H35"/>
      </g>
      <path d="M434 22V90" stroke="#cbd8ee"/>
      <g transform="translate(500 38)" fill="none" stroke="#2563eb" stroke-width="4" stroke-linecap="round" stroke-linejoin="round">
        <path d="M0 18H52"/>
        <path d="M34 0L52 18L34 36"/>
      </g>
    </g>
  </g>

  <g transform="translate(680 52)">
    <rect x="0" y="0" width="468" height="570" rx="18" fill="url(#panelBg)"/>

    <g transform="translate(52 84)" filter="url(#cardShadow)">
      <rect x="0" y="0" width="368" height="286" rx="20" fill="#ffffff"/>
      <path d="M34 48H184M34 76H152" stroke="#e7edf7" stroke-width="8" stroke-linecap="round"/>
      <path d="M56 196L110 152L164 174L218 128L272 96L322 62" fill="none" stroke="#3678ff" stroke-width="5" stroke-linecap="round" stroke-linejoin="round"/>
      <g fill="#3678ff">
        <circle cx="56" cy="196" r="6"/>
        <circle cx="110" cy="152" r="6"/>
        <circle cx="164" cy="174" r="6"/>
        <circle cx="218" cy="128" r="6"/>
        <circle cx="272" cy="96" r="6"/>
        <circle cx="322" cy="62" r="6"/>
      </g>
      <g opacity="0.65">
        <rect x="44" y="228" width="36" height="38" rx="4" fill="#cfe0ff"/>
        <rect x="96" y="212" width="36" height="54" rx="4" fill="#bcd3ff"/>
        <rect x="148" y="202" width="36" height="64" rx="4" fill="#adc7ff"/>
        <rect x="200" y="188" width="36" height="78" rx="4" fill="#8facff"/>
        <rect x="252" y="174" width="36" height="92" rx="4" fill="#6f91ff"/>
        <rect x="304" y="150" width="36" height="116" rx="4" fill="#4e78f6"/>
      </g>
    </g>

    <g transform="translate(150 420)" filter="url(#cardShadow)">
      <rect x="0" y="0" width="284" height="126" rx="18" fill="#ffffff"/>
      <circle cx="68" cy="63" r="48" fill="#dbeafe"/>
      <path d="M68 15A48 48 0 0 1 116 63A48 48 0 0 1 95 103L68 63Z" fill="#2563eb"/>
      <circle cx="68" cy="63" r="22" fill="#ffffff"/>
      <path d="M144 42H242M144 65H224M144 88H208" stroke="#e3eaf5" stroke-width="8" stroke-linecap="round"/>
    </g>
  </g>
</svg>
